PathFileType	4	(X/Y/Z)	C:/Users/opensim2020/Desktop/walking_exp_matlab/subject01_walking04_static.trc																																																																																																																															
DataRate	CameraRate	NumFrames	NumMarkers	Units	OrigDataRate	OrigDataStartFrame	OrigNumFrames																																																																																																																											
100	100	5	43	mm	100	241	321																																																																																																																											
Frame#	Time	LFHD			RFHD			LBHD			RBHD			C7			T10			CLAV			STRN			RBAK			LSHO			LUPA			LELB			LFRM			LWRA			LWRB			LFIN			RSHO			RUPA			RELB			RFRM			RWRA			RWRB			RFIN			LASI			RASI			LPSI			RPSI			LTHI			LKNE			LTIB			LANK			LHEE			LTOE			RTHI			RKNE			RTIB			RANK			RHEE			RTOE			*39			*40			*41			*42		
		X1	Y1	Z1	X2	Y2	Z2	X3	Y3	Z3	X4	Y4	Z4	X5	Y5	Z5	X6	Y6	Z6	X7	Y7	Z7	X8	Y8	Z8	X9	Y9	Z9	X10	Y10	Z10	X11	Y11	Z11	X12	Y12	Z12	X13	Y13	Z13	X14	Y14	Z14	X15	Y15	Z15	X16	Y16	Z16	X17	Y17	Z17	X18	Y18	Z18	X19	Y19	Z19	X20	Y20	Z20	X21	Y21	Z21	X22	Y22	Z22	X23	Y23	Z23	X24	Y24	Z24	X25	Y25	Z25	X26	Y26	Z26	X27	Y27	Z27	X28	Y28	Z28	X29	Y29	Z29	X30	Y30	Z30	X31	Y31	Z31	X32	Y32	Z32	X33	Y33	Z33	X34	Y34	Z34	X35	Y35	Z35	X36	Y36	Z36	X37	Y37	Z37	X38	Y38	Z38	X39	Y39	Z39	X40	Y40	Z40	X41	Y41	Z41	X42	Y42	Z42	X43	Y43	Z43
																																																																																																																																		
241	2.4	-10.91145	1684.3407	-403.51831	-7.46872	1693.69897	-289.49106	-109.91249	1607.36646	-403.72021	-109.95592	1615.45874	-283.37265	-115.63458	1437.89709	-356.16486	-141.75229	1143.83643	-346.45572	30.48287	1374.74585	-345.55392	78.78573	1220.19238	-345.40115	-167.89012	1242.29651	-277.51056	-21.44774	1398.22485	-510.09485	-43.3679	1221.20679	-604.91486	-54.33849	1073.0321	-627.55463	-3.78008	964.5108	-637.13361	66.38457	852.39587	-590.67065	25.76408	846.19281	-635.01227	77.26757	778.78149	-623.8974	-38.98662	1400.61597	-198.72714	-90.82733	1210.68347	-82.88537	-76.09231	1087.02734	-56.99597	-28.70763	969.90277	-38.10313	39.238	855.30255	-90.59073	19.86188	856.71857	-35.87043	54.26245	779.80725	-54.07817	43.9501	937.95996	-445.37817	32.75666	941.79187	-228.16318	-147.59157	951.91168	-404.2045	-153.72209	957.17706	-261.63284	-5.97286	606.97089	-517.68695	-26.72188	472.58517	-508.026	-77.24861	292.97568	-530.64844	-84.90298	71.49418	-488.4595	-124.14034	39.24978	-435.90417	64.27565	33.32239	-509.13464	-39.22821	613.38007	-157.77084	-29.43662	456.53293	-173.42857	-74.86291	287.71735	-151.09254	-79.98077	78.50393	-178.9668	-124.77986	35.22631	-227.73782	61.46439	37.13894	-164.27255	-28.48431	1722.19958	-313.50177	3101.94019	1023.32983	1973.14429	3140.71069	1021.94812	2012.50281	NaN	NaN	NaN
242	2.41	-10.90503	1684.32764	-403.55566	-7.46991	1693.7168	-289.52649	-109.90764	1607.34961	-403.74951	-110.0155	1615.46179	-283.39456	-115.60691	1437.88452	-356.17932	-141.74709	1143.85132	-346.4082	30.45746	1374.72949	-345.54944	78.80177	1220.19116	-345.38861	-167.85603	1242.30457	-277.47806	-21.4482	1398.19812	-510.09018	-43.35916	1221.16589	-604.89606	-54.33725	1072.98157	-627.50684	-3.77466	964.47156	-637.09747	66.35658	852.3609	-590.65442	25.74749	846.12494	-634.96985	77.20596	778.71307	-623.88434	-39.00087	1400.6283	-198.72403	-90.74343	1210.70056	-82.84129	-76.02509	1087.04797	-56.94482	-28.63254	969.961	-38.05564	39.29208	855.297	-90.53487	19.91009	856.74921	-35.75713	54.17196	779.81775	-53.99538	43.93428	937.93793	-445.32428	32.77305	941.81293	-228.1217	-147.5865	951.93262	-404.17398	-153.71953	957.20801	-261.57199	-5.98029	606.95618	-517.6297	-26.73797	472.59494	-507.99747	-77.29146	292.95496	-530.61987	-84.92912	71.48098	-488.4696	-124.21881	39.28495	-435.9678	64.26373	33.3318	-509.14471	-39.25291	613.3634	-157.75233	-29.43159	456.51529	-173.37172	-74.8626	287.72458	-151.08926	-79.94302	78.45386	-179.0071	-124.79854	35.28897	-227.68564	61.46727	37.15189	-164.24506	-28.43949	1722.19824	-313.5275	3101.78882	1023.35968	1973.03528	3140.65771	1022.01221	2012.46582	NaN	NaN	NaN
243	2.42	-10.91378	1684.31165	-403.56461	-7.44754	1693.73889	-289.53113	-109.91558	1607.34412	-403.76468	-109.98581	1615.46167	-283.40427	-115.59914	1437.87964	-356.18155	-141.71112	1143.86011	-346.39014	30.49975	1374.75867	-345.55692	78.82131	1220.20691	-345.37311	-167.82811	1242.31873	-277.42984	-21.44562	1398.1604	-510.09229	-43.36685	1221.12744	-604.87225	-54.34929	1072.95898	-627.48102	-3.80868	964.43005	-637.0484	66.42402	852.34381	-590.48383	25.71146	846.11108	-634.93695	77.16792	778.6748	-623.85028	-38.94236	1400.62134	-198.73633	-90.66913	1210.72131	-82.80936	-75.94238	1087.06799	-56.89219	-28.57563	969.99133	-37.98118	39.35653	855.31952	-90.43726	19.9958	856.78613	-35.67508	54.34182	779.86572	-53.89882	43.95017	937.9361	-445.26291	32.75808	941.79425	-228.07242	-147.60043	951.96143	-404.13376	-153.71297	957.23254	-261.48642	-6.00399	606.94745	-517.60431	-26.7717	472.57111	-507.94177	-77.29575	292.97229	-530.59979	-84.9519	71.48409	-488.3924	-124.15898	39.22482	-435.89243	64.26732	33.29646	-509.12997	-39.27993	613.36823	-157.70868	-29.44899	456.52481	-173.31328	-74.84586	287.68719	-151.08041	-79.96448	78.43571	-178.99339	-124.8053	35.26299	-227.62598	61.46804	37.18424	-164.24736	-28.48667	1722.19666	-313.57474	3101.88696	1023.43536	1973.15552	3140.67651	1021.92767	2012.48328	NaN	NaN	NaN
244	2.43	-10.92689	1684.33057	-403.59863	-7.44447	1693.74121	-289.56534	-109.90714	1607.32251	-403.79214	-110.02261	1615.46069	-283.40292	-115.58205	1437.88403	-356.1799	-141.72076	1143.86865	-346.29236	30.50793	1374.75696	-345.55106	78.84557	1220.21704	-345.36179	-167.83612	1242.34729	-277.41275	-21.45024	1398.15161	-510.08359	-43.37856	1221.11499	-604.86481	-54.37786	1072.92896	-627.46094	-3.82666	964.42133	-637.06506	66.41069	852.31073	-590.45667	25.69983	846.07471	-634.91986	77.18085	778.63544	-623.82416	-38.90642	1400.64526	-198.71205	-90.60629	1210.76355	-82.75368	-75.88336	1087.11084	-56.86739	-28.51996	970.04102	-37.91392	39.41164	855.33118	-90.35939	20.0228	856.80829	-35.58396	54.40146	779.85608	-53.79718	43.94202	937.92883	-445.20734	32.78962	941.80365	-227.9994	-147.60439	951.9823	-404.05838	-153.65076	957.22034	-261.46719	-6.04438	606.97369	-517.56378	-26.81553	472.59143	-507.93677	-77.33469	292.97202	-530.57886	-84.91783	71.45709	-488.41769	-124.20405	39.2861	-435.96066	64.27437	33.35653	-509.14548	-39.27568	613.37634	-157.65915	-29.47142	456.48343	-173.28381	-74.83226	287.7001	-151.09081	-79.9602	78.46857	-178.97209	-124.8627	35.31794	-227.62068	61.45219	37.14544	-164.23048	-28.50273	1722.19629	-313.58994	3102.01514	1023.41089	1973.09363	3140.63916	1021.88196	2012.44568	NaN	NaN	NaN
245	2.44	-10.92292	1684.32544	-403.61017	-7.50497	1693.74023	-289.58304	-109.89697	1607.31812	-403.78119	-110.00479	1615.47168	-283.41989	-115.5646	1437.89404	-356.17712	-141.71931	1143.88367	-346.26404	30.53553	1374.75513	-345.53958	78.88542	1220.20178	-345.3425	-167.79018	1242.35449	-277.39108	-21.44567	1398.1394	-510.08066	-43.40996	1221.07678	-604.82227	-54.38042	1072.90112	-627.44324	-3.82427	964.38519	-637.03748	66.41741	852.27289	-590.40717	25.70788	846.05029	-634.90637	77.14857	778.61768	-623.81769	-38.89454	1400.66028	-198.72424	-90.56754	1210.79102	-82.71751	-75.8408	1087.1366	-56.81497	-28.48253	970.06036	-37.83827	39.4837	855.38678	-90.25418	20.07668	856.87177	-35.45631	54.45214	779.89679	-53.69248	43.93706	937.89868	-445.15958	32.79964	941.80255	-227.96692	-147.60056	951.97748	-404.00986	-153.67993	957.26978	-261.39532	-6.09604	606.96582	-517.53284	-26.8335	472.60559	-507.91516	-77.32557	292.94388	-530.54156	-84.9105	71.47932	-488.42062	-124.14885	39.22144	-435.89929	64.2825	33.34443	-509.15274	-39.29362	613.38324	-157.60655	-29.44438	456.49347	-173.25726	-74.8119	287.6969	-151.04332	-79.91133	78.50207	-178.92867	-124.88203	35.29287	-227.59819	61.43843	37.16277	-164.2529	-28.49258	1722.21851	-313.60666	3101.75391	1023.3631	1973.17578	3140.57617	1022.02789	2012.54236	NaN	NaN	NaN
